<?xml version="1.0" encoding="utf-8"?>
<!-- Generator: Adobe Illustrator 18.1.1, SVG Export Plug-In . SVG Version: 6.00 Build 0)  -->
<svg version="1.1" id="Layer_1" xmlns="http://www.w3.org/2000/svg" xmlns:xlink="http://www.w3.org/1999/xlink" x="0px" y="0px"
	 width="452px" height="251px" viewBox="-79 271 452 251" enable-background="new -79 271 452 251" xml:space="preserve">
<g>
	<path fill="#B9BEC2" d="M-24.8,499.2c-4,0-7.2-3.2-7.2-7.2V289.5c0-4,3.2-7.2,7.2-7.2h338.1c4,0,7.2,3.2,7.2,7.2V492
		c0,4-3.2,7.2-7.2,7.2H-24.8z"/>
	<path fill="#414141" d="M316.9,492c0,2-1.6,3.6-3.6,3.6H-24.8c-2,0-3.6-1.6-3.6-3.6V289.5c0-2,1.6-3.6,3.6-3.6h338.1
		c2,0,3.6,1.6,3.6,3.6L316.9,492L316.9,492z"/>
	<rect x="-14" y="300.2" fill="#616161" width="316.5" height="181"/>
	<path fill="#999999" d="M370,507.1c0,2-1.5,3.6-3.3,3.6H-72.7c-1.8,0-3.3-1.6-3.3-3.6v0c0-2,1.5-3.6,3.3-3.6h439.4
		C368.5,503.5,370,505.1,370,507.1L370,507.1z"/>
	<path fill="#D9DBDF" d="M189.5,499.2c-0.3,1.7-1.8,3-3.5,3h-78c-1.8,0-3.3-1.3-3.5-3H-76v8.5h446v-8.5H189.5z"/>
	<path fill="#999999" d="M108,502.3h78c1.8,0,3.3-1.3,3.5-3h-85.1C104.7,501,106.2,502.3,108,502.3z"/>
	<polygon opacity="5.000000e-02" fill="#FFFFFF" enable-background="new    " points="316.9,432.9 -14,285.9 316.9,285.9 	"/>
</g>
</svg>
